<?xml version="1.0" encoding="iso-8859-1"?>
<svg xmlns="http://www.w3.org/2000/svg" xmlns:xlink="http://www.w3.org/1999/xlink" version="1.1" viewBox="0 0 44 44" enable-background="new 0 0 44 44" width="24px" height="24px">
  <g>
    <path d="m22,13c-5,0-9,4-9,9s4,9 9,9 9-4 9-9-4-9-9-9zm4.6,9.8l-6,4c-0.2,0.1-0.3,0.2-0.6,0.2-0.6,0-1-0.4-1-1v-8c0-0.6 0.4-1 1-1 0.2,0 0.4,0.1 0.6,0.2l6,4c0.3,0.2 0.4,0.5 0.4,0.8s-0.2,0.7-0.4,0.8z" fill="#a41e56"/>
    <path d="m22,0c-12.2,0-22,9.8-22,22s9.8,22 22,22 22-9.8 22-22-9.8-22-22-22zm0,35c-7.2,0-13-5.8-13-13s5.8-13 13-13 13,5.8 13,13-5.8,13-13,13z" fill="#a41e56"/>
  </g>
</svg>
